HIERARCHY
ROOT Hips
{
 OFFSET 0.000000 0.000000 0.000000
 CHANNELS 6 Xposition Yposition Zposition Yrotation Xrotation Zrotation
 JOINT Chest
 {
  OFFSET 0.000000 11.395451 -0.039534
  CHANNELS 3 Yrotation Xrotation Zrotation
  JOINT Chest2
  {
   OFFSET 0.000000 9.398669 0.071813
   CHANNELS 3 Yrotation Xrotation Zrotation
   JOINT Chest3
   {
    OFFSET 0.000000 8.489801 0.000000
    CHANNELS 3 Yrotation Xrotation Zrotation
    JOINT Chest4
    {
     OFFSET 0.000000 8.489801 0.000000
     CHANNELS 3 Yrotation Xrotation Zrotation
     JOINT Neck
     {
      OFFSET 0.000000 12.404889 0.000000
      CHANNELS 3 Yrotation Xrotation Zrotation
      JOINT Head
      {
       OFFSET 0.000000 8.903270 0.092239
       CHANNELS 3 Yrotation Xrotation Zrotation
       End Site
       {
        OFFSET 0.000000 17.592497 0.007158
       }
      }
     }
     JOINT RightCollar
     {
      OFFSET -3.196775 6.966722 0.000000
      CHANNELS 3 Yrotation Xrotation Zrotation
      JOINT RightShoulder
      {
       OFFSET -15.955896 0.000000 0.000000
       CHANNELS 3 Yrotation Xrotation Zrotation
       JOINT RightElbow
       {
        OFFSET -24.792472 0.000000 0.000000
        CHANNELS 3 Yrotation Xrotation Zrotation
        JOINT RightWrist
        {
         OFFSET -20.900115 0.000000 0.025002
         CHANNELS 3 Yrotation Xrotation Zrotation
         End Site
         {
          OFFSET -16.056692 0.000000 0.000000
         }
        }
       }
      }
     }
     JOINT LeftCollar
     {
      OFFSET 3.196775 6.966722 0.000000
      CHANNELS 3 Yrotation Xrotation Zrotation
      JOINT LeftShoulder
      {
       OFFSET 15.955896 0.000000 0.000000
       CHANNELS 3 Yrotation Xrotation Zrotation
       JOINT LeftElbow
       {
        OFFSET 24.792472 0.000000 0.000000
        CHANNELS 3 Yrotation Xrotation Zrotation
        JOINT LeftWrist
        {
         OFFSET 20.900115 0.000000 0.025002
         CHANNELS 3 Yrotation Xrotation Zrotation
         End Site
         {
          OFFSET 16.056692 0.000000 0.000000
         }
        }
       }
      }
     }
    }
   }
  }
 }
 JOINT RightHip
 {
  OFFSET -9.568995 0.193718 0.019767
  CHANNELS 3 Yrotation Xrotation Zrotation
  JOINT RightKnee
  {
   OFFSET 0.000000 -56.649296 0.015402
   CHANNELS 3 Yrotation Xrotation Zrotation
   JOINT RightAnkle
   {
    OFFSET 0.000000 -41.365147 0.021264
    CHANNELS 3 Yrotation Xrotation Zrotation
    JOINT RightToe
    {
     OFFSET 0.000000 -7.465940 17.672538
     CHANNELS 3 Yrotation Xrotation Zrotation
     End Site
     {
      OFFSET 0.000000 -1.736315 7.837145
     }
    }
   }
  }
 }
 JOINT LeftHip
 {
  OFFSET 9.568995 0.193718 0.019767
  CHANNELS 3 Yrotation Xrotation Zrotation
  JOINT LeftKnee
  {
   OFFSET 0.000000 -56.649296 0.015402
   CHANNELS 3 Yrotation Xrotation Zrotation
   JOINT LeftAnkle
   {
    OFFSET 0.000000 -41.365147 0.021264
    CHANNELS 3 Yrotation Xrotation Zrotation
    JOINT LeftToe
    {
     OFFSET 0.000000 -7.465940 17.672538
     CHANNELS 3 Yrotation Xrotation Zrotation
     End Site
     {
      OFFSET 0.000000 -1.736315 7.837145
     }
    }
   }
  }
 }
}
MOTION
Frames: 11
Frame Time: 0.016667
-8.628003 49.508915 70.868618 57.150889 2.530436 -0.252523 -1.586661 8.653093 1.815338 -0.737159 3.839883 0.834185 -0.737217 3.840031 0.834223 -0.557989 2.879115 0.630093 3.665973 15.973230 0.940508 6.484510 -6.485344 0.417524 7.971467 5.666734 8.865544 11.095015 -25.136435 67.003791 11.383721 3.780313 -2.141659 1.320739 -2.673987 -3.463017 -2.189236 8.189185 -8.054994 -7.930598 -18.104329 -73.889991 1.971184 8.813674 5.933506 1.185107 2.883645 -2.357467 11.431071 -13.693913 -13.853034 20.586025 24.201666 -1.791610 16.217421 -6.044616 6.492582 -0.944528 -16.077392 6.379120 0.746129 -16.570099 4.902418 -13.771865 27.318656 0.730380 0.663650 -10.836640 -7.699214 0.031674 -3.822897 -0.928828
-8.396174 49.633215 69.161426 55.411597 2.948333 -0.538072 -1.600326 8.822700 1.887382 -0.745063 3.914683 0.866782 -0.745063 3.914683 0.866782 -0.564141 2.934968 0.654614 3.250993 15.991282 1.153285 5.633306 -6.472728 0.964433 7.927514 5.843794 8.760191 9.616460 -25.774220 67.887531 11.860665 1.123244 -3.851729 1.606566 -2.939478 -4.662237 -2.207348 8.424318 -7.976403 -9.044343 -19.064282 -72.920932 2.056934 9.429961 6.327805 1.630592 3.246074 -2.394715 11.059120 -15.377508 -13.577868 17.138212 25.398868 -1.840532 12.738952 -3.923830 5.343689 -1.190410 -15.563222 9.161071 2.049897 -17.414145 4.091455 -14.744814 27.864541 0.568108 2.029953 -10.591961 -7.810823 0.011303 -3.839982 -0.337176
-8.261964 49.760883 67.557328 53.222073 3.280303 -0.872862 -1.277841 9.046846 1.920348 -0.603503 4.015040 0.875635 -0.603444 4.014786 0.875587 -0.458133 3.010090 0.660365 2.850344 16.015349 1.370546 4.808075 -6.442393 1.515085 7.947448 5.818544 8.708415 8.389091 -26.104961 68.677239 12.580009 -2.266389 -5.249537 2.025524 -3.361539 -5.885352 -2.195068 8.363908 -7.735541 -9.598626 -19.945791 -72.556743 1.943309 9.714450 7.161352 2.043784 3.713820 -1.870549 10.858513 -17.082170 -13.076370 12.509839 26.481985 -2.294828 10.127139 -2.390285 3.691362 -0.983030 -12.765613 12.179814 1.741372 -17.971332 4.185103 -12.754487 28.190484 0.503771 2.429932 -10.492243 -7.610491 -0.002985 -3.748931 0.091321
-8.178172 49.907492 66.043862 50.772482 3.551491 -1.237705 -0.737934 9.276890 1.928174 -0.365310 4.119677 0.868818 -0.365208 4.119531 0.868791 -0.279599 3.089060 0.653762 2.457484 16.071299 1.569730 4.004017 -6.346457 2.030003 8.005884 5.688720 8.694550 7.327906 -26.210843 69.416626 13.430577 -6.070251 -6.428375 2.528265 -3.863559 -7.071494 -2.147176 8.149766 -7.415396 -9.723948 -20.807366 -72.571534 1.689136 9.809848 8.215774 2.414488 4.202463 -0.962995 10.663737 -18.761583 -12.369741 7.116886 27.453050 -3.025039 8.017195 -1.498322 1.751251 -0.267221 -8.444149 14.473768 0.530702 -18.315040 4.799613 -9.265334 28.343542 0.535536 2.420143 -10.392445 -7.347734 -0.014634 -3.582650 0.472463
-7.999370 50.060515 64.621219 48.239035 3.745710 -1.581435 -0.221185 9.429246 1.902509 -0.136741 4.189849 0.847117 -0.136741 4.189849 0.847117 -0.108327 3.142205 0.635993 2.160416 16.168817 1.704991 3.402083 -6.169105 2.390376 8.033995 5.615056 8.716647 6.683988 -26.181700 69.854298 13.947827 -9.383282 -7.167659 2.926061 -4.316290 -7.874889 -2.046484 7.993114 -7.179506 -9.422230 -21.505598 -72.682986 1.237052 9.496058 8.899152 2.479136 4.340028 0.218199 10.339130 -20.145250 -11.632307 2.308681 28.323434 -3.519565 6.535579 -1.537413 0.399818 0.456123 -4.441626 14.276255 -0.056113 -18.460163 5.155493 -6.672765 28.297773 0.609924 2.856176 -10.256280 -7.136204 -0.022643 -3.429030 0.769214
-7.638691 50.218261 63.294225 45.622766 3.847641 -1.879207 0.219884 9.446989 1.847292 0.059434 4.199312 0.813605 0.059317 4.199202 0.813588 0.038800 3.149420 0.609503 1.992437 16.347802 1.735669 3.079591 -5.837640 2.509567 7.988374 5.676226 8.782860 6.675255 -26.019115 69.788694 13.836143 -12.075336 -7.345685 3.066806 -4.687248 -8.175883 -1.863350 7.964931 -7.125277 -8.521879 -21.967643 -72.850272 0.449760 8.629597 8.918820 2.034916 3.946695 1.880655 9.934950 -21.104375 -11.022021 -1.479432 29.169848 -3.448362 6.083650 -2.511486 0.280753 0.595066 -1.863367 10.286838 0.741183 -18.419752 4.835428 -6.186415 28.024318 0.704357 4.288360 -10.075036 -7.024103 -0.026594 -3.326982 0.924676
-7.183001 50.382421 62.058054 42.924776 3.875921 -2.146115 0.638675 9.385398 1.770742 0.246795 4.173390 0.771259 0.246717 4.173230 0.771234 0.179637 3.130146 0.576471 1.913196 16.564002 1.691343 2.949549 -5.434930 2.458111 7.909869 5.795643 8.879081 7.083991 -25.745068 69.408900 13.245033 -14.262315 -7.083480 2.986969 -4.990206 -8.140900 -1.632158 7.988614 -7.159566 -7.192098 -22.251694 -73.139108 -0.543725 7.330724 8.591218 1.204994 3.245512 3.827095 9.428652 -21.770588 -10.425751 -4.613712 30.073833 -3.014343 6.385525 -3.908661 0.981192 0.295592 -0.502905 4.372383 2.171824 -18.237285 4.221382 -6.613532 27.604831 0.827395 6.164262 -9.862146 -6.951640 -0.028197 -3.238416 0.996124
-6.747481 50.545545 60.898422 40.321460 3.871110 -2.391027 0.953367 9.330580 1.672201 0.388541 4.150317 0.721430 0.388541 4.150317 0.721430 0.286372 3.113203 0.538193 1.901419 16.702460 1.634053 2.948084 -5.177148 2.357799 7.855173 5.899551 8.970036 7.503606 -25.480479 69.058136 12.365860 -15.414485 -6.532202 2.741160 -5.164658 -7.875497 -1.435269 8.053998 -7.166305 -5.954188 -22.407386 -73.413066 -1.414742 5.773359 8.239316 0.275717 2.421697 5.352371 8.587229 -22.258739 -9.624857 -6.921748 31.104253 -2.450309 6.547027 -5.164977 1.768854 0.000000 0.000000 0.000000 3.500220 -18.048097 3.721305 -6.756713 27.175920 0.936390 7.686915 -9.627299 -6.872864 -0.030582 -3.135730 1.118064
-6.373268 50.711822 59.818915 37.863550 3.834494 -2.633059 1.117898 9.317904 1.545582 0.464053 4.145182 0.662092 0.464071 4.145291 0.662104 0.343414 3.109538 0.493215 1.981610 16.699827 1.588714 3.112174 -5.182313 2.245311 7.850892 5.957174 9.048906 7.822799 -25.293755 68.821470 11.146256 -15.185460 -5.667211 2.285587 -5.167434 -7.417739 -1.297574 8.178060 -7.086761 -4.898867 -22.428910 -73.688673 -2.172183 3.795769 7.921600 -0.731421 1.370477 6.179226 7.188156 -22.565267 -8.467858 -7.973091 32.300517 -1.647260 6.170911 -6.200567 2.489969 -0.084041 0.108738 -1.106390 4.489452 -17.884146 3.524243 -6.092398 26.764213 1.009158 8.451540 -9.368433 -6.782101 -0.034633 -3.001745 1.363642
-6.019223 50.877064 58.815946 35.500891 3.768395 -2.849486 1.178144 9.309563 1.395504 0.493797 4.141147 0.594403 0.493822 4.141173 0.594400 0.366187 3.106377 0.442252 2.134715 16.620944 1.540705 3.413265 -5.327866 2.100969 7.871323 6.000031 9.125015 8.153920 -25.114658 68.614354 9.715341 -13.885547 -4.623575 1.669895 -5.017150 -6.739545 -1.195939 8.347002 -6.985410 -3.940810 -22.327732 -73.953667 -2.813759 1.567075 7.582816 -1.795026 0.151233 6.597763 5.469871 -22.638007 -7.137585 -8.166728 33.613599 -0.681822 5.645406 -7.159142 3.260661 -0.045159 0.032600 -0.555054 5.378917 -17.701642 3.441757 -5.145680 26.321073 1.056421 8.865934 -9.085330 -6.695048 -0.038051 -2.852766 1.659262
-5.677104 51.021250 57.864474 33.257528 3.718447 -2.992127 1.189362 9.282665 1.233033 0.502075 4.128753 0.522295 0.502075 4.128753 0.522295 0.372859 3.096999 0.388155 2.275130 16.544962 1.494138 3.690842 -5.467252 1.963497 7.896187 6.046068 9.190751 8.427379 -24.850085 68.516863 8.558450 -12.010178 -3.773623 1.107623 -4.755939 -5.838462 -1.140288 8.503830 -6.929363 -3.334242 -22.190318 -74.025289 -3.019906 -0.225498 7.335243 -2.530369 -0.866524 6.771022 3.882855 -22.539513 -5.902528 -8.627117 34.890392 -0.102191 5.212280 -7.990875 3.724751 0.000000 0.000000 0.000000 6.149404 -17.520091 3.318241 -4.292317 25.838393 1.073699 9.352930 -8.795924 -6.602723 -0.039775 -2.711409 1.919284
